HIERARCHY
ROOT Hips
{
  OFFSET 5.72205e-005 65.662 3.42586
  CHANNELS 6 Xposition Yposition Zposition Zrotation Xrotation Yrotation
  JOINT Chest
  {
    OFFSET 0 8.7983 -4.7612
    CHANNELS 3 Zrotation Xrotation Yrotation
    JOINT Chest2
    {
      OFFSET 0 8.0291 0.4195
      CHANNELS 3 Zrotation Xrotation Yrotation
      JOINT Chest3
      {
        OFFSET 0 9.9351 -2.2114
        CHANNELS 3 Zrotation Xrotation Yrotation
        JOINT Neck
        {
          OFFSET 0 22.3885 -0.4656
          CHANNELS 3 Zrotation Xrotation Yrotation
          JOINT Head
          {
            OFFSET -0.0001 12.643 3.4389
            CHANNELS 3 Zrotation Xrotation Yrotation
            End Site
            {
              OFFSET 0.0001 17.6655 0.5274
            }
          }
        }
        JOINT LeftCollar
        {
          OFFSET 2.2603 21.606 7.4023
          CHANNELS 3 Zrotation Xrotation Yrotation
          JOINT LeftShoulder
          {
            OFFSET 13.5163 -1.1332 -5.0146
            CHANNELS 3 Zrotation Xrotation Yrotation
            JOINT LeftElbow
            {
              OFFSET -0.0995 -28.05 -0.2431
              CHANNELS 3 Zrotation Xrotation Yrotation
              JOINT LeftWrist
              {
                OFFSET 0.0679 -23.3996 -0.1402
                CHANNELS 3 Zrotation Xrotation Yrotation
                JOINT LeftFinger1
                {
                  OFFSET 0.7932 -9.069 2.5189
                  CHANNELS 3 Zrotation Xrotation Yrotation
                  JOINT LeftFinger11
                  {
                    OFFSET -0.8272 -3.3923 0.5977
                    CHANNELS 3 Zrotation Xrotation Yrotation
                    JOINT LeftFinger12
                    {
                      OFFSET -0.5649 -2.3158 0.4082
                      CHANNELS 3 Zrotation Xrotation Yrotation
                      End Site
                      {
                        OFFSET -0.4919 -1.6479 0.2673
                      }
                    }
                  }
                }
                JOINT LeftFinger2
                {
                  OFFSET 0.9159 -9.2044 0.2193
                  CHANNELS 3 Zrotation Xrotation Yrotation
                  JOINT LeftFinger21
                  {
                    OFFSET 0.0117 -4.1944 -0.0248
                    CHANNELS 3 Zrotation Xrotation Yrotation
                    JOINT LeftFinger22
                    {
                      OFFSET 0.0071 -2.3249 -0.0142
                      CHANNELS 3 Zrotation Xrotation Yrotation
                      End Site
                      {
                        OFFSET -0.1475 -2.0882 0.0028
                      }
                    }
                  }
                }
                JOINT LeftFinger3
                {
                  OFFSET 0.6113 -8.7231 -2.0637
                  CHANNELS 3 Zrotation Xrotation Yrotation
                  JOINT LeftFinger31
                  {
                    OFFSET -0.1927 -3.8059 -0.2383
                    CHANNELS 3 Zrotation Xrotation Yrotation
                    JOINT LeftFinger32
                    {
                      OFFSET -0.1091 -2.1688 -0.1362
                      CHANNELS 3 Zrotation Xrotation Yrotation
                      End Site
                      {
                        OFFSET -0.2358 -1.9176 -0.0906
                      }
                    }
                  }
                }
                JOINT LeftFinger4
                {
                  OFFSET -0.6151 -8.0947 -3.5641
                  CHANNELS 3 Zrotation Xrotation Yrotation
                  JOINT LeftFinger41
                  {
                    OFFSET -0.4882 -2.341 -0.6462
                    CHANNELS 3 Zrotation Xrotation Yrotation
                    JOINT LeftFinger42
                    {
                      OFFSET -0.3575 -1.7167 -0.4742
                      CHANNELS 3 Zrotation Xrotation Yrotation
                      End Site
                      {
                        OFFSET -0.4187 -1.5237 -0.3496
                      }
                    }
                  }
                }
                JOINT LeftFinger0
                {
                  OFFSET -1.42 -1.8761 1.4223
                  CHANNELS 3 Zrotation Xrotation Yrotation
                  JOINT LeftFinger01
                  {
                    OFFSET -1.1471 -3.4929 2.6334
                    CHANNELS 3 Zrotation Xrotation Yrotation
                    JOINT LeftFinger02
                    {
                      OFFSET -0.823 -2.3 1.6571
                      CHANNELS 3 Zrotation Xrotation Yrotation
                      End Site
                      {
                        OFFSET -0.5822 -1.6914 1.1582
                      }
                    }
                  }
                }
              }
            }
          }
        }
        JOINT RightCollar
        {
          OFFSET -2.2603 21.606 7.4023
          CHANNELS 3 Zrotation Xrotation Yrotation
          JOINT RightShoulder
          {
            OFFSET -13.5187 -1.1334 -5.0155
            CHANNELS 3 Zrotation Xrotation Yrotation
            JOINT RightElbow
            {
              OFFSET 0.0994 -28.0499 -0.2431
              CHANNELS 3 Zrotation Xrotation Yrotation
              JOINT RightWrist
              {
                OFFSET -0.0679 -23.3996 -0.1402
                CHANNELS 3 Zrotation Xrotation Yrotation
                JOINT RightFinger1
                {
                  OFFSET -0.7932 -9.0691 2.5189
                  CHANNELS 3 Zrotation Xrotation Yrotation
                  JOINT RightFinger11
                  {
                    OFFSET 0.8272 -3.3923 0.5977
                    CHANNELS 3 Zrotation Xrotation Yrotation
                    JOINT RightFinger12
                    {
                      OFFSET 0.565 -2.3158 0.4082
                      CHANNELS 3 Zrotation Xrotation Yrotation
                      End Site
                      {
                        OFFSET 0.4919 -1.6479 0.2673
                      }
                    }
                  }
                }
                JOINT RightFinger2
                {
                  OFFSET -0.916 -9.2044 0.2193
                  CHANNELS 3 Zrotation Xrotation Yrotation
                  JOINT RightFinger21
                  {
                    OFFSET -0.0117 -4.1944 -0.0248
                    CHANNELS 3 Zrotation Xrotation Yrotation
                    JOINT RightFinger22
                    {
                      OFFSET -0.0071 -2.3249 -0.0142
                      CHANNELS 3 Zrotation Xrotation Yrotation
                      End Site
                      {
                        OFFSET 0.1475 -2.0882 0.0028
                      }
                    }
                  }
                }
                JOINT RightFinger3
                {
                  OFFSET -0.6113 -8.7231 -2.0637
                  CHANNELS 3 Zrotation Xrotation Yrotation
                  JOINT RightFinger31
                  {
                    OFFSET 0.1927 -3.8059 -0.2383
                    CHANNELS 3 Zrotation Xrotation Yrotation
                    JOINT RightFinger32
                    {
                      OFFSET 0.1091 -2.1688 -0.1362
                      CHANNELS 3 Zrotation Xrotation Yrotation
                      End Site
                      {
                        OFFSET 0.2358 -1.9176 -0.0906
                      }
                    }
                  }
                }
                JOINT RightFinger4
                {
                  OFFSET 0.6151 -8.0947 -3.564
                  CHANNELS 3 Zrotation Xrotation Yrotation
                  JOINT RightFinger41
                  {
                    OFFSET 0.4882 -2.341 -0.6462
                    CHANNELS 3 Zrotation Xrotation Yrotation
                    JOINT RightFinger42
                    {
                      OFFSET 0.3574 -1.7166 -0.4742
                      CHANNELS 3 Zrotation Xrotation Yrotation
                      End Site
                      {
                        OFFSET 0.4187 -1.5237 -0.3496
                      }
                    }
                  }
                }
                JOINT RightFinger0
                {
                  OFFSET 1.4199 -1.8761 1.4221
                  CHANNELS 3 Zrotation Xrotation Yrotation
                  JOINT RightFinger01
                  {
                    OFFSET 1.1472 -3.4929 2.6336
                    CHANNELS 3 Zrotation Xrotation Yrotation
                    JOINT RightFinger02
                    {
                      OFFSET 0.8229 -2.3 1.6571
                      CHANNELS 3 Zrotation Xrotation Yrotation
                      End Site
                      {
                        OFFSET 0.5822 -1.6914 1.1582
                      }
                    }
                  }
                }
              }
            }
          }
        }
      }
    }
  }
  JOINT RightHip
  {
    OFFSET -9.412 3.9771 -0.7758
    CHANNELS 3 Zrotation Xrotation Yrotation
    JOINT RightKnee
    {
      OFFSET -0.7531 -40.938 0
      CHANNELS 3 Zrotation Xrotation Yrotation
      JOINT RightAnkle
      {
        OFFSET 0 -40.1986 0
        CHANNELS 3 Zrotation Xrotation Yrotation
        JOINT RightToe
        {
          OFFSET 0 -4.4182 9.239
          CHANNELS 3 Zrotation Xrotation Yrotation
          End Site
          {
            OFFSET 0 0 6.1981
          }
        }
      }
    }
  }
  JOINT LeftHip
  {
    OFFSET 9.4119 3.9773 -0.7758
    CHANNELS 3 Zrotation Xrotation Yrotation
    JOINT LeftKnee
    {
      OFFSET 0.7532 -40.9383 0
      CHANNELS 3 Zrotation Xrotation Yrotation
      JOINT LeftAnkle
      {
        OFFSET 0 -40.1986 0
        CHANNELS 3 Zrotation Xrotation Yrotation
        JOINT LeftToe
        {
          OFFSET 0 -4.4182 9.239
          CHANNELS 3 Zrotation Xrotation Yrotation
          End Site
          {
            OFFSET 0 0 6.1981
          }
        }
      }
    }
  }
}
MOTION
Frames:	4
Frame Time:	0.0333333
5.72205e-005 65.662 3.42586 0 0 -0 0 0 -0 0 0 -0 0 0 -0 0 0 -0 0 0 -0 0 0 -12.5014 88.1196 14.2451 10.6914 -0.00160068 -0.00239207 0.000740045 -8.4365e-005 7.00714e-005 -9.52055e-007 9.93923e-017 -1.98785e-016 -1.59028e-015 9.93923e-017 -5.96354e-016 -1.59028e-015 -9.93923e-017 -5.96354e-016 -1.59028e-015 9.93923e-017 -1.98785e-016 -1.59028e-015 -0.0128176 0.00232552 8.52707e-005 9.93923e-017 5.96354e-016 -0 9.93923e-017 -1.98785e-016 -1.59028e-015 -0.0160551 0.00299681 0.000857156 -2.48481e-016 0 3.18055e-015 9.93923e-017 -1.98785e-016 -1.59028e-015 -0.0125865 0.0031206 0.00282719 0 1.98785e-016 -0 9.93923e-017 -1.98785e-016 -1.59028e-015 9.93923e-017 -5.96354e-016 -1.59028e-015 -9.93923e-017 -5.96354e-016 -1.59028e-015 -0.865644 0.16582 7.03859 -88.0329 10.2057 -10.5567 0.0015593 -0.00248883 -0.000788628 7.87605e-005 4.10553e-005 1.24965e-005 -3.97569e-016 -7.95139e-016 3.18055e-015 -1.98785e-016 -3.97569e-016 3.18055e-015 -1.98785e-016 0 3.18055e-015 -3.97569e-016 -7.95139e-016 3.18055e-015 0.0129473 0.00231697 -8.70038e-005 9.93923e-017 -7.95139e-016 1.59028e-015 -3.97569e-016 -7.95139e-016 3.18055e-015 0.0163314 0.00303369 -0.000872333 3.97569e-016 7.95139e-016 -3.18055e-015 -3.97569e-016 -7.95139e-016 3.18055e-015 0.0145763 0.00367772 -0.00326275 9.93923e-017 -3.97569e-016 -0 -3.97569e-016 -7.95139e-016 3.18055e-015 -1.98785e-016 -3.97569e-016 3.18055e-015 -1.98785e-016 0 3.18055e-015 3.42482 1.32465 -0.0626183 0.000117508 0.717283 0.000978199 -3.4257 -2.04197 -0.0604716 6.47761e-025 0 -0 -3.42483 1.34017 0.0627307 -0.000193936 0.682302 -0.0013703 3.42574 -2.02253 0.0595886 -8.45714e-024 0 -7.40531e-025 
15.776 6.28678 21.6339 1.27598e-014 -33.0001 4.17829e-014 1.55042e-007 18.5997 -3.28159e-007 4.70927e-007 37.1995 -7.80709e-007 4.7092e-007 37.1992 -7.807e-007 -2.75667e-011 30.9973 3.43268e-011 0.000415027 0.274509 -0.173106 -1.3327e-006 -0.00185547 -12.5014 27.0976 -49.9942 26.9232 -8.3632 -37.1844 -4.07422 -14.754 2.70651 -0.109644 7.95139e-016 0 1.59028e-015 -7.95139e-016 0 3.18055e-015 3.97569e-015 0 1.59028e-015 7.95139e-016 0 1.59028e-015 -0.0127893 0.00232097 8.83096e-005 0 3.18055e-015 -0 7.95139e-016 0 1.59028e-015 -0.0160708 0.0029911 0.000856581 -2.38542e-015 -9.54166e-015 -3.18055e-015 7.95139e-016 0 1.59028e-015 -0.0125787 0.00312032 0.00282202 2.38542e-015 3.18055e-015 3.18055e-015 7.95139e-016 0 1.59028e-015 -7.95139e-016 0 3.18055e-015 3.97569e-015 0 1.59028e-015 -0.870899 0.133671 9.03704 -28.2461 -73.9338 -9.04282 6.88478 -9.84989 2.548 13.7409 2.70818 17.5005 1.59028e-015 4.77083e-015 -0 1.59028e-015 3.18055e-015 -0 -1.59028e-015 6.36111e-015 -0 1.59028e-015 4.77083e-015 -0 0.0129696 0.00232389 -9.2776e-005 1.59028e-015 1.59028e-015 -6.36111e-015 1.59028e-015 4.77083e-015 -0 0.0163699 0.00303964 -0.00087429 1.59028e-015 6.36111e-015 9.54166e-015 1.59028e-015 4.77083e-015 -0 0.0145266 0.00366062 -0.00325336 -1.59028e-015 -4.77083e-015 -0 1.59028e-015 4.77083e-015 -0 1.59028e-015 3.18055e-015 -0 -1.59028e-015 6.36111e-015 -0 -50.2712 -7.12378 8.13857 179.875 38.0037 175.925 -1.42029 8.76142 -2.65945 -3.32064e-006 1.51357e-007 2.15816e-006 43.5706 -20.4012 0.875406 -179.775 28.5445 -174.02 -2.11597 35.6842 5.19564 -1.59028e-015 1.0011e-007 9.54166e-015 
15.7617 6.31136 22.2066 1.08181e-014 -33.0001 4.32961e-014 1.55042e-007 18.5997 -3.28159e-007 4.70927e-007 37.1995 -7.80709e-007 4.70919e-007 37.1992 -7.807e-007 -2.75175e-011 30.757 3.43e-011 0.000415014 0.274502 -0.173106 -2.78047e-006 -0.00185529 -12.5014 27.0941 -49.3458 26.8155 -8.74473 -38.3558 -4.34644 -15.2498 2.77498 0.35503 1.59028e-015 -1.75073e-007 -1.59028e-015 3.82917e-007 -1.53829e-006 7.37969e-007 1.40178e-006 -2.27725e-006 1.06271e-006 1.59028e-015 -1.75073e-007 -1.59028e-015 -0.012809 0.00231882 8.63883e-005 -2.38542e-015 -6.36111e-015 1.59028e-015 1.59028e-015 -1.75073e-007 -1.59028e-015 -0.0160612 0.00300594 0.000862394 -3.36468e-007 -2.80726e-006 1.15954e-006 1.59028e-015 -1.75073e-007 -1.59028e-015 -0.0126251 0.0031322 0.00283864 3.18055e-015 0 3.18055e-015 1.59028e-015 -1.75073e-007 -1.59028e-015 3.82917e-007 -1.53829e-006 7.37969e-007 1.40178e-006 -2.27725e-006 1.06271e-006 -0.8709 0.13368 9.03704 -26.7108 -73.1213 -7.55964 6.88472 -9.84976 2.54793 13.7409 2.70821 17.5005 1.59028e-015 3.18055e-015 9.54166e-015 -7.68414e-007 -1.57807e-006 3.58638e-007 7.68414e-007 1.57807e-006 -3.58638e-007 1.59028e-015 3.18055e-015 9.54166e-015 0.0129383 0.00230529 -9.39903e-005 7.22447e-007 1.83806e-006 2.23517e-006 1.59028e-015 3.18055e-015 9.54166e-015 0.016363 0.00303191 -0.000877034 7.68405e-007 1.38804e-006 -3.58596e-007 1.59028e-015 3.18055e-015 9.54166e-015 0.0144981 0.00366133 -0.00325283 8.77774e-006 -1.19041e-005 1.29741e-005 1.59028e-015 3.18055e-015 9.54166e-015 -7.68414e-007 -1.57807e-006 3.58638e-007 7.68414e-007 1.57807e-006 -3.58638e-007 -50.4459 -6.62614 9.19672 179.882 39.501 176.078 -1.45775 9.05286 -2.54994 -1.04869e-005 1.07676e-005 4.445e-006 44.2907 -19.6527 0.234982 -179.782 29.3353 -174.175 -2.01711 35.9138 5.0642 -1.61979e-006 3.79457e-006 2.20021e-006 
15.7473 6.3366 22.7802 1.06763e-014 -33.0001 6.85396e-014 1.55042e-007 18.5997 -3.28158e-007 4.70927e-007 37.1995 -7.80709e-007 4.7092e-007 37.1992 -7.80701e-007 -2.79816e-011 30.5165 3.501e-011 0.000415045 0.27452 -0.173106 -2.79535e-006 -0.00188494 -12.5014 27.0925 -48.6961 26.7091 -9.14312 -39.5349 -4.63564 -15.7472 2.83956 0.821251 1.03368e-014 -3.18055e-015 -0 3.18055e-015 3.18055e-015 3.18055e-015 2.38542e-015 9.54166e-015 4.77083e-015 1.03368e-014 -3.18055e-015 -0 -0.012807 0.00233148 8.47896e-005 5.56597e-015 6.36111e-015 -1.59028e-015 1.03368e-014 -3.18055e-015 -0 -0.0160334 0.00299731 0.000856309 -3.97569e-015 0 -0 1.03368e-014 -3.18055e-015 -0 -0.0126057 0.00312646 0.00283233 -1.59028e-015 6.36111e-015 -1.59028e-015 1.03368e-014 -3.18055e-015 -0 3.18055e-015 3.18055e-015 3.18055e-015 2.38542e-015 9.54166e-015 4.77083e-015 -0.8709 0.133665 9.03704 -25.313 -72.2976 -6.21426 6.8847 -9.84971 2.54788 13.7409 2.70818 17.5005 -1.59028e-015 6.70074e-006 9.54166e-015 7.06225e-031 6.36111e-015 -6.36111e-015 -8.82781e-032 1.59028e-015 3.18055e-015 -1.59028e-015 6.70074e-006 9.54166e-015 0.0129041 0.00230442 -6.79483e-005 0 1.59028e-015 -0 -1.59028e-015 6.70074e-006 9.54166e-015 0.016338 0.0030412 -0.000875428 7.61341e-006 -1.30105e-005 1.07649e-005 -1.59028e-015 6.70074e-006 9.54166e-015 0.0145577 0.00366781 -0.00325684 -1.35278e-022 2.43694e-006 3.18055e-015 -1.59028e-015 6.70074e-006 9.54166e-015 7.06225e-031 6.36111e-015 -6.36111e-015 -8.82781e-032 1.59028e-015 3.18055e-015 -50.6262 -6.10981 10.239 179.888 41.0027 176.22 -1.49263 9.32547 -2.44755 -7.02156e-007 -7.24048e-007 -4.53715e-007 45.0094 -18.8949 -0.402713 -179.788 30.1274 -174.322 -1.92359 36.131 4.93942 7.65797e-006 -7.69632e-006 -4.89687e-006 
